<svg width="400" height="207" viewBox="0 0 400 207" fill="none" xmlns="http://www.w3.org/2000/svg">
<g clip-path="url(#clip0_2673_69220)">
<rect width="400" height="207" rx="10" fill="#0D0D0D"/>
<g filter="url(#filter0_f_2673_69220)">
<ellipse cx="251.988" cy="31.0501" rx="112.538" ry="95.22" fill="#952BBA"/>
<ellipse cx="34.8624" cy="-0.51696" rx="132.722" ry="112.297" fill="#4549B7"/>
<ellipse cx="73.3944" cy="103.501" rx="112.538" ry="95.22" fill="#46B34A"/>
<ellipse cx="251.988" cy="188.37" rx="112.538" ry="95.22" fill="#C13F3F"/>
</g>
<g filter="url(#filter1_f_2673_69220)">
<ellipse cx="384.71" cy="102.983" rx="132.722" ry="112.297" fill="#262C3F"/>
</g>
<mask id="path-8-inside-1_2673_69220" fill="white">
<path fill-rule="evenodd" clip-rule="evenodd" d="M365.944 34.0651L365.947 34.0619C366.274 33.6887 366.495 33.3132 366.723 32.8232C366.932 32.3733 366.987 31.9163 366.984 31.4334C366.981 30.9746 366.87 30.5065 366.695 30.0225C366.53 29.6111 366.252 29.1918 365.914 28.8144L365.911 28.8113L365.908 28.8081C365.756 28.6291 365.418 28.5792 365.156 28.7391C364.947 28.8671 364.887 29.1487 365.069 29.3692C365.341 29.6559 365.54 29.9923 365.672 30.3216C365.81 30.6645 365.876 31.0549 365.879 31.4384C365.881 31.8219 365.819 32.2129 365.686 32.557C365.558 32.8875 365.364 33.2256 365.095 33.5148C364.916 33.7369 364.979 34.018 365.19 34.1441C365.454 34.3016 365.791 34.2486 365.941 34.0683L365.944 34.0651ZM364.772 33.312C365.009 33.0584 365.186 32.7546 365.304 32.451C365.421 32.1475 365.479 31.7937 365.476 31.4402C365.474 31.0867 365.412 30.7335 365.291 30.431C365.17 30.1285 364.989 29.8263 364.748 29.5749C364.448 29.2228 364.504 28.7175 364.92 28.4631C365.337 28.2087 365.934 28.2565 366.235 28.6087C366.595 29.0111 366.896 29.4642 367.078 29.9179C367.261 30.4221 367.383 30.9266 367.386 31.4316C367.39 31.9366 367.333 32.4419 367.097 32.948C366.862 33.4541 366.626 33.8592 366.27 34.2648C365.974 34.6196 365.377 34.6728 364.958 34.4222C364.539 34.1716 364.476 33.6668 364.772 33.312ZM368.399 34.9502L368.393 34.9582C368.26 35.1173 368.311 35.4133 368.591 35.5871C368.85 35.7163 369.15 35.6524 369.346 35.4243C370.192 34.2608 370.694 32.9098 370.684 31.4168C370.675 29.973 370.156 28.5767 369.295 27.4216C369.087 27.1854 368.736 27.145 368.549 27.2592C368.271 27.4294 368.196 27.6914 368.362 27.913C369.124 28.9223 369.571 30.1445 369.579 31.4217C369.587 32.6993 369.155 33.9257 368.405 34.942L368.399 34.9502ZM369.628 27.2298C370.531 28.4378 371.077 29.8999 371.087 31.4149C371.097 32.9805 370.568 34.3969 369.681 35.613C369.385 35.9678 368.848 36.1218 368.369 35.8714C367.95 35.6208 367.768 35.1166 368.064 34.7617C368.774 33.799 369.185 32.6356 369.177 31.4235C369.169 30.2115 368.744 29.0519 368.022 28.0956C367.721 27.6929 367.897 27.2376 368.313 26.9832C368.73 26.7288 369.327 26.8777 369.628 27.2298ZM372.789 25.9157L372.781 25.9033C372.668 25.7137 372.35 25.6172 372.024 25.7489C371.754 25.9013 371.683 26.1501 371.827 26.3999C372.885 27.8627 373.447 29.5836 373.459 31.4043C373.47 33.233 372.865 34.9567 371.892 36.4194C371.749 36.6717 371.822 36.9215 372.096 37.0722C372.396 37.1905 372.692 37.1232 372.868 36.8845C374.012 35.2662 374.636 33.4061 374.624 31.399C374.611 29.391 373.963 27.5358 372.797 25.9274L372.789 25.9157ZM373.211 37.0616C372.916 37.467 372.379 37.5704 371.9 37.3706C371.421 37.1202 371.299 36.6662 371.535 36.2612C372.481 34.8428 373.068 33.1736 373.057 31.4061C373.045 29.6385 372.498 27.9744 371.474 26.565C371.233 26.162 371.349 25.707 371.825 25.4523C372.302 25.2482 372.899 25.3465 373.14 25.7494C374.345 27.4106 375.013 29.3267 375.026 31.3972C375.039 33.4677 374.395 35.3897 373.211 37.0616ZM376.239 24.3811L376.234 24.3727C376.118 24.1797 375.791 24.0832 375.459 24.2254C375.233 24.3224 375.119 24.595 375.281 24.8733C376.574 26.7799 377.383 29.0021 377.398 31.3865C377.413 33.7648 376.695 35.9957 375.362 37.9212C375.221 38.1727 375.295 38.4214 375.567 38.5717C375.866 38.6894 376.161 38.6233 376.337 38.3873C377.721 36.3098 378.519 33.9422 378.503 31.3815C378.487 28.8182 377.657 26.4557 376.244 24.3893L376.239 24.3811ZM376.683 38.5611C376.387 38.9664 375.85 39.0698 375.372 38.87C374.893 38.6196 374.77 38.1657 375.006 37.7606C376.308 35.8861 377.01 33.7114 376.996 31.3883C376.981 29.0653 376.192 26.8972 374.926 25.0343C374.685 24.6314 374.801 24.1259 375.278 23.9217C375.754 23.7175 376.351 23.8159 376.593 24.2188C378.038 26.3334 378.889 28.7537 378.906 31.3797C378.922 34.0058 378.102 36.4336 376.683 38.5611Z"/>
</mask>
<path fill-rule="evenodd" clip-rule="evenodd" d="M365.944 34.0651L365.947 34.0619C366.274 33.6887 366.495 33.3132 366.723 32.8232C366.932 32.3733 366.987 31.9163 366.984 31.4334C366.981 30.9746 366.87 30.5065 366.695 30.0225C366.53 29.6111 366.252 29.1918 365.914 28.8144L365.911 28.8113L365.908 28.8081C365.756 28.6291 365.418 28.5792 365.156 28.7391C364.947 28.8671 364.887 29.1487 365.069 29.3692C365.341 29.6559 365.54 29.9923 365.672 30.3216C365.81 30.6645 365.876 31.0549 365.879 31.4384C365.881 31.8219 365.819 32.2129 365.686 32.557C365.558 32.8875 365.364 33.2256 365.095 33.5148C364.916 33.7369 364.979 34.018 365.19 34.1441C365.454 34.3016 365.791 34.2486 365.941 34.0683L365.944 34.0651ZM364.772 33.312C365.009 33.0584 365.186 32.7546 365.304 32.451C365.421 32.1475 365.479 31.7937 365.476 31.4402C365.474 31.0867 365.412 30.7335 365.291 30.431C365.17 30.1285 364.989 29.8263 364.748 29.5749C364.448 29.2228 364.504 28.7175 364.92 28.4631C365.337 28.2087 365.934 28.2565 366.235 28.6087C366.595 29.0111 366.896 29.4642 367.078 29.9179C367.261 30.4221 367.383 30.9266 367.386 31.4316C367.39 31.9366 367.333 32.4419 367.097 32.948C366.862 33.4541 366.626 33.8592 366.27 34.2648C365.974 34.6196 365.377 34.6728 364.958 34.4222C364.539 34.1716 364.476 33.6668 364.772 33.312ZM368.399 34.9502L368.393 34.9582C368.26 35.1173 368.311 35.4133 368.591 35.5871C368.85 35.7163 369.15 35.6524 369.346 35.4243C370.192 34.2608 370.694 32.9098 370.684 31.4168C370.675 29.973 370.156 28.5767 369.295 27.4216C369.087 27.1854 368.736 27.145 368.549 27.2592C368.271 27.4294 368.196 27.6914 368.362 27.913C369.124 28.9223 369.571 30.1445 369.579 31.4217C369.587 32.6993 369.155 33.9257 368.405 34.942L368.399 34.9502ZM369.628 27.2298C370.531 28.4378 371.077 29.8999 371.087 31.4149C371.097 32.9805 370.568 34.3969 369.681 35.613C369.385 35.9678 368.848 36.1218 368.369 35.8714C367.95 35.6208 367.768 35.1166 368.064 34.7617C368.774 33.799 369.185 32.6356 369.177 31.4235C369.169 30.2115 368.744 29.0519 368.022 28.0956C367.721 27.6929 367.897 27.2376 368.313 26.9832C368.73 26.7288 369.327 26.8777 369.628 27.2298ZM372.789 25.9157L372.781 25.9033C372.668 25.7137 372.35 25.6172 372.024 25.7489C371.754 25.9013 371.683 26.1501 371.827 26.3999C372.885 27.8627 373.447 29.5836 373.459 31.4043C373.47 33.233 372.865 34.9567 371.892 36.4194C371.749 36.6717 371.822 36.9215 372.096 37.0722C372.396 37.1905 372.692 37.1232 372.868 36.8845C374.012 35.2662 374.636 33.4061 374.624 31.399C374.611 29.391 373.963 27.5358 372.797 25.9274L372.789 25.9157ZM373.211 37.0616C372.916 37.467 372.379 37.5704 371.9 37.3706C371.421 37.1202 371.299 36.6662 371.535 36.2612C372.481 34.8428 373.068 33.1736 373.057 31.4061C373.045 29.6385 372.498 27.9744 371.474 26.565C371.233 26.162 371.349 25.707 371.825 25.4523C372.302 25.2482 372.899 25.3465 373.14 25.7494C374.345 27.4106 375.013 29.3267 375.026 31.3972C375.039 33.4677 374.395 35.3897 373.211 37.0616ZM376.239 24.3811L376.234 24.3727C376.118 24.1797 375.791 24.0832 375.459 24.2254C375.233 24.3224 375.119 24.595 375.281 24.8733C376.574 26.7799 377.383 29.0021 377.398 31.3865C377.413 33.7648 376.695 35.9957 375.362 37.9212C375.221 38.1727 375.295 38.4214 375.567 38.5717C375.866 38.6894 376.161 38.6233 376.337 38.3873C377.721 36.3098 378.519 33.9422 378.503 31.3815C378.487 28.8182 377.657 26.4557 376.244 24.3893L376.239 24.3811ZM376.683 38.5611C376.387 38.9664 375.85 39.0698 375.372 38.87C374.893 38.6196 374.77 38.1657 375.006 37.7606C376.308 35.8861 377.01 33.7114 376.996 31.3883C376.981 29.0653 376.192 26.8972 374.926 25.0343C374.685 24.6314 374.801 24.1259 375.278 23.9217C375.754 23.7175 376.351 23.8159 376.593 24.2188C378.038 26.3334 378.889 28.7537 378.906 31.3797C378.922 34.0058 378.102 36.4336 376.683 38.5611Z" fill="white"/>
<path d="M365.947 34.0619L398.303 62.4412L398.304 62.4392L365.947 34.0619ZM365.944 34.0651L333.588 5.68588L333.245 6.07709L332.912 6.4765L365.944 34.0651ZM366.723 32.8232L405.713 51.0256L405.713 51.0256L366.723 32.8232ZM366.695 30.0225L407.143 15.5L406.873 14.7501L406.575 14.0107L366.695 30.0225ZM365.914 28.8144L397.912 0.147164L397.911 0.145242L365.914 28.8144ZM365.911 28.8113L333.228 56.696L333.566 57.0923L333.914 57.4804L365.911 28.8113ZM365.908 28.8081L398.591 0.923356L398.591 0.92271L365.908 28.8081ZM365.156 28.7391L342.683 -7.96099L342.683 -7.96097L365.156 28.7391ZM365.069 29.3692L331.965 56.753L332.888 57.8673L333.883 58.9174L365.069 29.3692ZM365.672 30.3216L325.764 46.2627L325.764 46.2627L365.672 30.3216ZM365.686 32.557L325.58 16.9765L325.58 16.9765L365.686 32.557ZM365.095 33.5148L333.539 4.24929L332.557 5.30825L331.648 6.43088L365.095 33.5148ZM365.19 34.1441L387.2 -2.75643L387.2 -2.75646L365.19 34.1441ZM365.941 34.0683L398.973 61.6576L398.974 61.657L365.941 34.0683ZM365.304 32.451L325.198 16.8705L325.198 16.8705L365.304 32.451ZM364.772 33.312L333.341 3.91126L332.515 4.79441L331.74 5.7227L364.772 33.312ZM365.291 30.431L325.383 46.372L325.383 46.372L365.291 30.431ZM364.748 29.5749L332.066 57.4603L332.852 58.3815L333.689 59.2572L364.748 29.5749ZM364.92 28.4631L387.393 65.1632L387.393 65.1632L364.92 28.4631ZM366.235 28.6087L333.552 56.494L333.889 56.8891L334.236 57.2759L366.235 28.6087ZM367.078 29.9179L407.516 15.366L407.263 14.6669L406.986 13.9769L367.078 29.9179ZM367.097 32.948L328.107 14.7456L328.107 14.7456L367.097 32.948ZM366.27 34.2648L333.913 5.88748L333.571 6.27741L333.238 6.6755L366.27 34.2648ZM364.958 34.4222L386.968 -2.47829L386.968 -2.4783L364.958 34.4222ZM368.393 34.9582L401.424 62.5475L401.425 62.5462L368.393 34.9582ZM368.399 34.9502L401.432 62.5383L402.255 61.5516L403.018 60.5174L368.399 34.9502ZM368.591 35.5871L345.981 72.1219L347.655 73.1596L349.416 74.0403L368.591 35.5871ZM369.346 35.4243L401.991 63.4703L403.115 62.1604L404.131 60.7643L369.346 35.4243ZM369.295 27.4216L403.763 1.77426L402.701 0.347532L401.524 -0.98682L369.295 27.4216ZM368.549 27.2592L346.076 -9.44085L346.076 -9.44084L368.549 27.2592ZM368.362 27.913L333.899 53.5683L333.98 53.6764L334.061 53.784L368.362 27.913ZM368.405 34.942L403.024 60.5092L403.026 60.5077L368.405 34.942ZM369.628 27.2298L404.054 1.52607L403.218 0.407029L402.311 -0.65554L369.628 27.2298ZM369.681 35.613L402.712 63.2023L403.606 62.1316L404.428 61.0051L369.681 35.613ZM368.369 35.8714L346.36 72.7719L347.416 73.4033L348.507 73.9733L368.369 35.8714ZM368.064 34.7617L401.095 62.3511L401.92 61.3631L402.684 60.3274L368.064 34.7617ZM368.022 28.0956L333.596 53.7993L333.66 53.8857L333.725 53.9718L368.022 28.0956ZM368.313 26.9832L390.786 63.6833L390.786 63.6833L368.313 26.9832ZM372.781 25.9033L335.9 47.9456L335.9 47.9464L372.781 25.9033ZM372.789 25.9157L335.908 47.9588L336.88 49.5815L337.99 51.1129L372.789 25.9157ZM372.024 25.7489L355.849 -14.1213L353.264 -13.0766L350.837 -11.7065L372.024 25.7489ZM371.827 26.3999L334.53 47.7341L335.665 49.7131L337.002 51.5615L371.827 26.3999ZM371.892 36.4194L336.081 12.5525L335.222 13.8422L334.459 15.1906L371.892 36.4194ZM372.096 37.0722L351.383 74.7176L353.817 76.0597L356.403 77.0779L372.096 37.0722ZM372.868 36.8845L407.532 62.3905L407.763 62.0757L407.989 61.7567L372.868 36.8845ZM372.797 25.9274L407.597 0.731034L407.596 0.730177L372.797 25.9274ZM373.211 37.0616L407.959 62.4537L408.145 62.1997L408.326 61.9431L373.211 37.0616ZM371.9 37.3706L352.038 75.4725L353.683 76.3321L355.396 77.0471L371.9 37.3706ZM371.535 36.2612L335.749 12.3563L335.031 13.4336L334.378 14.5524L371.535 36.2612ZM371.474 26.565L334.593 48.6073L335.574 50.2456L336.696 51.7908L371.474 26.565ZM371.825 25.4523L354.822 -14.0732L353.119 -13.3429L351.485 -12.4684L371.825 25.4523ZM373.14 25.7494L336.259 47.7918L337.231 49.4144L338.341 50.9458L373.14 25.7494ZM376.234 24.3727L413.116 2.33152L413.115 2.33037L376.234 24.3727ZM376.239 24.3811L339.356 46.4223L340.023 47.5354L340.755 48.6065L376.239 24.3811ZM375.459 24.2254L358.456 -15.3001L358.456 -15.3001L375.459 24.2254ZM375.281 24.8733L338.125 46.4507L338.871 47.7329L339.704 48.9608L375.281 24.8733ZM375.362 37.9212L339.996 13.3987L338.838 15.0706L337.843 16.8446L375.362 37.9212ZM375.567 38.5717L354.854 76.2168L357.288 77.5589L359.874 78.5772L375.567 38.5717ZM376.337 38.3873L410.838 64.1132L411.511 63.2102L412.135 62.2731L376.337 38.3873ZM376.244 24.3893L340.761 48.6146L340.761 48.6153L376.244 24.3893ZM375.372 38.87L355.509 76.9719L357.154 77.8316L358.867 78.5465L375.372 38.87ZM376.683 38.5611L411.431 63.9531L411.965 63.2205L412.469 62.466L376.683 38.5611ZM375.006 37.7606L339.669 13.1963L338.703 14.5881L337.85 16.0519L375.006 37.7606ZM374.926 25.0343L338.045 47.0767L338.677 48.1315L339.367 49.1487L374.926 25.0343ZM375.278 23.9217L392.281 63.4473L392.281 63.4473L375.278 23.9217ZM376.593 24.2188L339.711 46.2611L340.378 47.374L341.11 48.4448L376.593 24.2188ZM333.591 5.6827L333.588 5.68588L398.3 62.4443L398.303 62.4412L333.591 5.6827ZM327.733 14.6208C328.073 13.8902 328.746 12.5108 329.776 10.8437C330.863 9.0837 332.134 7.34437 333.589 5.68463L398.304 62.4392C402.163 58.0372 404.413 53.8184 405.713 51.0256L327.733 14.6208ZM323.984 31.6272C323.966 28.6906 324.252 22.1003 327.733 14.6208L405.713 51.0256C409.613 42.6463 410.008 35.142 409.984 31.2397L323.984 31.6272ZM326.248 44.545C325.487 42.4363 324.023 37.8063 323.984 31.6272L409.984 31.2397C409.939 24.1428 408.253 18.5766 407.143 15.5L326.248 44.545ZM333.915 57.4817C331.73 55.0436 328.931 51.2822 326.816 46.0343L406.575 14.0107C404.128 7.94004 400.774 3.34 397.912 0.147164L333.915 57.4817ZM333.914 57.4804L333.917 57.4836L397.911 0.145242L397.908 0.142088L333.914 57.4804ZM333.225 56.6928L333.228 56.696L398.594 0.926566L398.591 0.923356L333.225 56.6928ZM387.629 65.4392C379.101 70.6516 369.621 72.3344 360.986 71.3924C352.847 70.5046 341.836 66.7788 333.226 56.6934L398.591 0.92271C382.327 -18.1277 357.676 -17.1247 342.683 -7.96099L387.629 65.4392ZM398.173 1.98535C414.428 21.6211 410.091 51.7105 387.629 65.4392L342.683 -7.96097C319.802 6.02378 315.346 36.6763 331.965 56.753L398.173 1.98535ZM405.58 14.3806C403.728 9.76237 400.789 4.60419 396.256 -0.179075L333.883 58.9174C329.893 54.7077 327.352 50.2222 325.764 46.2627L405.58 14.3806ZM408.878 31.2447C408.847 26.3334 408.026 20.4806 405.58 14.3806L325.764 46.2627C323.593 40.8484 322.905 35.7765 322.879 31.6321L408.878 31.2447ZM405.792 48.1375C408.161 42.0158 408.909 36.156 408.878 31.2447L322.879 31.6321C322.853 27.4878 323.477 22.41 325.58 16.9765L405.792 48.1375ZM396.652 62.7804C401.125 57.9565 403.999 52.7721 405.792 48.1375L325.58 16.9765C327.118 13.0029 329.602 8.49476 333.539 4.24929L396.652 62.7804ZM387.2 -2.75646C409.833 10.7691 414.549 40.8177 398.542 60.5988L331.648 6.43088C315.283 26.6561 320.125 57.2668 343.181 71.0446L387.2 -2.75646ZM332.91 6.47905C341.393 -3.68329 352.356 -7.50817 360.483 -8.46925C369.106 -9.48894 378.607 -7.89167 387.2 -2.75643L343.18 71.0446C358.288 80.0727 382.95 80.8534 398.973 61.6576L332.91 6.47905ZM332.912 6.4765L332.909 6.47973L398.974 61.657L398.976 61.6537L332.912 6.4765ZM325.198 16.8705C326.761 12.8307 329.3 8.23274 333.341 3.91126L396.203 62.7127C400.719 57.8841 403.612 52.6785 405.41 48.0316L325.198 16.8705ZM322.477 31.634C322.451 27.459 323.079 22.3441 325.198 16.8705L405.41 48.0316C407.763 41.9509 408.507 36.1284 408.476 31.2465L322.477 31.634ZM325.383 46.372C323.196 40.9178 322.503 35.8089 322.477 31.634L408.476 31.2465C408.445 26.3646 407.628 20.5491 405.199 14.49L325.383 46.372ZM333.689 59.2572C329.594 54.9724 326.997 50.3975 325.383 46.372L405.199 14.49C403.342 9.85954 400.384 4.6803 395.807 -0.107361L333.689 59.2572ZM342.448 -8.23701C318.268 6.54131 315.529 38.0904 332.066 57.4603L397.431 1.68955C404.882 10.4167 408.928 22.4446 407.143 35.0749C405.314 48.0118 397.737 58.8409 387.393 65.1632L342.448 -8.23701ZM398.917 0.723309C382.147 -18.9194 357.063 -17.1697 342.448 -8.237L387.393 65.1632C379.059 70.2573 369.815 71.9443 361.367 71.0894C352.961 70.2388 342.032 66.4272 333.552 56.494L398.917 0.723309ZM406.986 13.9769C404.519 7.8243 401.124 3.16701 398.233 -0.0585902L334.236 57.2759C332.066 54.8551 329.274 51.1042 327.171 45.859L406.986 13.9769ZM410.386 31.2379C410.341 24.0746 408.634 18.4594 407.516 15.366L326.641 44.4698C325.888 42.3849 324.426 37.7786 324.387 31.6254L410.386 31.2379ZM406.088 51.1504C410.013 42.7169 410.411 35.1656 410.386 31.2379L324.387 31.6254C324.368 28.7077 324.653 22.1669 328.107 14.7456L406.088 51.1504ZM398.628 62.6421C402.514 58.2085 404.78 53.9606 406.088 51.1504L328.107 14.7456C328.447 14.0169 329.114 12.6507 330.133 11.0007C331.203 9.26764 332.462 7.54213 333.913 5.88748L398.628 62.6421ZM342.948 71.3227C357.675 80.1232 382.78 81.6468 399.302 61.8541L333.238 6.6755C341.593 -3.33349 352.473 -7.24337 360.869 -8.16973C369.305 -9.10061 378.569 -7.49705 386.968 -2.47829L342.948 71.3227ZM331.74 5.7227C315.448 25.2405 318.584 56.7631 342.948 71.3227L386.968 -2.4783C397.391 3.75038 405.104 14.5106 407.095 27.4303C409.039 40.0439 405.144 52.1075 397.804 60.9013L331.74 5.7227ZM401.425 62.5462L401.432 62.5383L335.367 7.3622L335.36 7.37012L401.425 62.5462ZM391.202 -0.947792C405.187 7.72254 423.531 36.0643 401.424 62.5475L335.361 7.36884C312.989 34.1704 331.435 63.104 345.981 72.1219L391.202 -0.947792ZM336.7 7.37839C348.684 -6.57674 369.511 -11.9937 387.766 -2.86613L349.416 74.0403C368.189 83.4264 389.616 77.8816 401.991 63.4703L336.7 7.37839ZM327.685 31.6105C327.629 22.7804 330.73 15.3478 334.56 10.0844L404.131 60.7643C409.654 53.1738 413.758 43.0392 413.684 31.223L327.685 31.6105ZM334.827 53.0689C330.829 47.7019 327.74 40.3333 327.685 31.6105L413.684 31.223C413.611 19.6126 409.482 9.45146 403.763 1.77426L334.827 53.0689ZM391.022 63.9593C379.818 70.8072 368.51 70.8482 361.172 69.492C353.041 67.9891 344.115 63.8221 337.067 55.83L401.524 -0.98682C394.267 -9.2151 385.062 -13.5204 376.656 -15.0739C369.044 -16.4809 357.467 -16.403 346.076 -9.44085L391.022 63.9593ZM402.824 2.2577C409.983 11.8644 413.63 25.4672 409.637 39.4458C405.966 52.2972 397.447 60.0322 391.022 63.9593L346.076 -9.44084C339.373 -5.34362 330.677 2.60746 326.941 15.6878C322.882 29.8954 326.575 43.74 333.899 53.5683L402.824 2.2577ZM412.579 31.228C412.508 19.9803 408.575 9.87277 402.662 2.04199L334.061 53.784C329.673 47.9719 326.635 40.3086 326.58 31.6155L412.579 31.228ZM403.026 60.5077C408.842 52.6231 412.65 42.4785 412.579 31.228L326.58 31.6155C326.525 22.9202 329.468 15.2283 333.785 9.37635L403.026 60.5077ZM403.018 60.5174L403.024 60.5092L333.786 9.37486L333.78 9.38308L403.018 60.5174ZM414.086 31.2212C414.013 19.5106 409.837 9.26328 404.054 1.52607L335.202 52.9336C331.225 47.6123 328.142 40.2892 328.087 31.6087L414.086 31.2212ZM404.428 61.0051C410.009 53.3599 414.161 43.1416 414.086 31.2212L328.087 31.6087C328.032 22.8194 331.128 15.4339 334.933 10.2209L404.428 61.0051ZM348.507 73.9733C368.421 84.3801 390.588 77.7271 402.712 63.2023L336.649 8.0237C348.181 -5.79143 369.275 -12.1366 388.232 -2.2305L348.507 73.9733ZM335.032 7.17237C324.634 19.6293 323.01 35.2223 326.788 47.7255C330.278 59.2768 337.947 67.7444 346.36 72.7719L390.379 -1.0291C398.373 3.74778 405.74 11.838 409.109 22.9858C412.765 35.0855 411.198 50.249 401.095 62.3511L335.032 7.17237ZM326.177 31.6173C326.122 22.8567 329.087 15.1018 333.444 9.19606L402.684 60.3274C408.461 52.4962 412.247 42.4145 412.177 31.2298L326.177 31.6173ZM333.725 53.9718C329.295 48.1056 326.233 40.3779 326.177 31.6173L412.177 31.2298C412.106 20.0451 408.194 9.99812 402.318 2.2194L333.725 53.9718ZM345.841 -9.71687C338.612 -5.29863 330.39 2.72234 326.691 15.1249C322.591 28.8699 325.617 43.1252 333.596 53.7993L402.448 2.39186C410.126 12.6633 413.09 26.4897 409.107 39.8427C405.524 51.8533 397.599 59.5195 390.786 63.6833L345.841 -9.71687ZM402.311 -0.65554C395.259 -8.91566 386.168 -13.4678 377.648 -15.2293C369.004 -17.0164 357.161 -16.636 345.84 -9.71685L390.786 63.6833C379.882 70.348 368.546 70.6757 360.38 68.9874C352.338 67.3247 343.697 63.0231 336.946 55.1152L402.311 -0.65554ZM335.9 47.9464L335.908 47.9588L409.67 3.87256L409.662 3.86022L335.9 47.9464ZM388.2 65.6191C380.533 68.7177 371.664 69.6543 362.772 67.5769C354.455 65.6341 343.223 60.1743 335.9 47.9456L409.663 3.86102C395.182 -20.3208 368.829 -19.3678 355.849 -14.1213L388.2 65.6191ZM409.123 5.06568C413.76 13.1546 416.924 25.1856 412.974 38.4107C409.111 51.347 400.305 59.2006 393.212 63.2043L350.837 -11.7065C343.474 -7.5504 334.497 0.503802 330.567 13.6651C326.55 27.1151 329.75 39.3954 334.53 47.7341L409.123 5.06568ZM416.459 31.2105C416.391 20.4794 413.003 10.0179 406.651 1.23822L337.002 51.5615C332.767 45.7075 330.504 38.6878 330.459 31.598L416.459 31.2105ZM407.703 60.2863C412.676 52.813 416.532 42.8452 416.459 31.2105L330.459 31.598C330.409 23.6209 333.054 17.1004 336.081 12.5525L407.703 60.2863ZM392.808 -0.57314C399.988 3.38599 408.943 11.2187 412.938 24.2174C417.018 37.4908 413.898 49.5661 409.324 57.6482L334.459 15.1906C329.743 23.5251 326.588 35.8514 330.737 49.3504C334.802 62.5748 343.93 70.6078 351.383 74.7176L392.808 -0.57314ZM338.204 11.3785C344.067 3.40124 352.628 -2.36253 362.472 -4.71277C372.023 -6.99308 380.885 -5.65206 387.789 -2.93336L356.403 77.0779C371.67 83.0896 393.912 80.9203 407.532 62.3905L338.204 11.3785ZM331.624 31.5927C331.577 24.1009 334.02 17.2803 337.747 12.0123L407.989 61.7567C414.004 53.2522 417.696 42.7113 417.623 31.2053L331.624 31.5927ZM337.998 51.1239C334.203 45.8892 331.671 39.0884 331.624 31.5927L417.623 31.2053C417.551 19.6936 413.723 9.18242 407.597 0.731034L337.998 51.1239ZM337.99 51.1129L337.998 51.1247L407.596 0.730177L407.588 0.718384L337.99 51.1129ZM338.464 11.6696C352.046 -6.93703 374.164 -8.25073 388.405 -2.30598L355.396 77.0471C370.594 83.3916 393.786 81.871 407.959 62.4537L338.464 11.6696ZM391.763 -0.731335C399.757 3.4465 408.558 11.4984 412.5 24.1445C416.476 36.9008 413.853 49.1189 408.692 57.9699L334.378 14.5524C328.981 23.8085 326.301 36.4561 330.399 49.6033C334.463 62.6402 343.564 71.0443 352.038 75.4725L391.763 -0.731335ZM407.321 60.1661C412.28 52.7324 416.129 42.8055 416.056 31.2123L330.057 31.5998C330.006 23.5417 332.683 16.9533 335.749 12.3563L407.321 60.1661ZM416.056 31.2123C415.989 20.5056 412.597 10.0762 406.252 1.33912L336.696 51.7908C332.398 45.8726 330.102 38.7715 330.057 31.5998L416.056 31.2123ZM408.356 4.52264C413.628 13.3266 416.405 25.5204 412.589 38.3118C408.806 50.9927 400.108 59.1234 392.166 63.3731L351.485 -12.4684C343.067 -7.96413 334.072 0.521482 330.173 13.5943C326.24 26.7776 329.079 39.4004 334.593 48.6073L408.356 4.52264ZM388.828 64.9779C381.175 68.2587 372.506 69.2533 363.937 67.4816C355.326 65.7013 343.731 60.2693 336.259 47.7918L410.022 3.70704C402.309 -9.17339 390.294 -14.856 381.205 -16.7351C372.157 -18.6057 362.951 -17.5582 354.822 -14.0732L388.828 64.9779ZM338.341 50.9458C334.584 45.764 332.073 39.0241 332.027 31.5909L418.026 31.2035C417.953 19.6292 414.105 9.05717 407.94 0.553008L338.341 50.9458ZM332.027 31.5909C331.98 24.1578 334.406 17.3956 338.097 12.1802L408.326 61.9431C414.384 53.3838 418.099 42.7777 418.026 31.2035L332.027 31.5909ZM339.351 46.4139L339.356 46.4223L413.121 2.33995L413.116 2.33152L339.351 46.4139ZM392.462 63.751C384.735 67.064 375.74 68.157 366.7 66.1547C358.279 64.2895 346.8 58.8527 339.352 46.415L413.115 2.33037C398.383 -22.2704 371.506 -20.8944 358.456 -15.3001L392.462 63.751ZM412.437 3.29588C417.878 12.6456 420.188 25.0412 416.209 37.5664C412.358 49.6897 403.457 59.0376 392.462 63.751L358.456 -15.3001C333.66 -4.66968 325.454 24.6763 338.125 46.4507L412.437 3.29588ZM420.398 31.1928C420.321 19.0139 416.166 8.61443 410.858 0.785774L339.704 48.9608C336.981 44.9453 334.445 38.9904 334.399 31.5802L420.398 31.1928ZM410.728 62.4437C416.916 53.508 420.47 42.696 420.398 31.1928L334.399 31.5802C334.356 24.8336 336.475 18.4833 339.996 13.3987L410.728 62.4437ZM396.28 0.926584C403.436 4.87265 412.358 12.6665 416.374 25.601C420.478 38.819 417.428 50.8839 412.88 58.9979L337.843 16.8446C333.154 25.2101 330.071 37.5251 334.245 50.9679C338.331 64.1272 347.426 72.1204 354.854 76.2168L396.28 0.926584ZM341.835 12.6614C347.732 4.7441 356.287 -0.941243 366.078 -3.24515C375.58 -5.48113 384.389 -4.13966 391.26 -1.43379L359.874 78.5772C375.047 84.5521 397.165 82.4695 410.838 64.1132L341.835 12.6614ZM335.504 31.5753C335.46 24.6446 337.713 18.7418 340.538 14.5015L412.135 62.2731C417.729 53.8778 421.579 43.2398 421.503 31.1878L335.504 31.5753ZM340.761 48.6153C337.879 44.4003 335.547 38.5137 335.504 31.5753L421.503 31.1878C421.427 19.1228 417.435 8.51114 411.727 0.163293L340.761 48.6153ZM340.755 48.6065L340.761 48.6146L411.728 0.163964L411.722 0.155783L340.755 48.6065ZM358.867 78.5465C374.066 84.891 397.257 83.3705 411.431 63.9531L341.935 13.1691C355.517 -5.43762 377.635 -6.75129 391.876 -0.80654L358.867 78.5465ZM337.85 16.0519C332.453 25.3079 329.772 37.9556 333.871 51.1028C337.935 64.1397 347.036 72.5437 355.509 76.9719L395.234 0.768085C403.229 4.9459 412.029 12.9978 415.971 25.6438C419.947 38.4002 417.324 50.6183 412.163 59.4693L337.85 16.0519ZM333.996 31.5821C333.953 24.7602 336.1 18.3383 339.669 13.1963L410.344 62.3249C416.516 53.434 420.068 42.6625 419.995 31.1946L333.996 31.5821ZM339.367 49.1487C336.609 45.0865 334.043 39.068 333.996 31.5821L419.995 31.1946C419.919 19.0625 415.774 8.70791 410.485 0.920013L339.367 49.1487ZM358.275 -15.6039C346.739 -10.6583 337.302 -0.693093 333.519 12.4052C329.896 24.9509 332.276 37.4427 338.045 47.0767L411.808 2.99202C417.336 12.2231 419.653 24.2606 416.147 36.4018C412.481 49.0955 403.34 58.7059 392.281 63.4473L358.275 -15.6039ZM413.474 2.17647C405.761 -10.704 393.746 -16.3866 384.657 -18.2658C375.61 -20.1364 366.404 -19.0889 358.275 -15.6039L392.281 63.4473C384.628 66.7281 375.959 67.7227 367.389 65.951C358.778 64.1707 347.183 58.7387 339.711 46.2611L413.474 2.17647ZM421.905 31.186C421.829 19.0579 417.816 8.38852 412.075 -0.00721443L341.11 48.4448C338.261 44.2782 335.949 38.4494 335.906 31.5735L421.905 31.186ZM412.469 62.466C418.103 54.019 421.982 43.314 421.905 31.186L335.906 31.5735C335.863 24.6975 338.101 18.8482 340.897 14.6562L412.469 62.466Z" fill="white" mask="url(#path-8-inside-1_2673_69220)"/>
<path d="M364.343 29.452C364.593 29.7142 364.782 30.0291 364.908 30.3444C365.035 30.6596 365.1 31.0276 365.102 31.3959C365.105 31.7642 365.046 32.1328 364.924 32.4489C364.802 32.7651 364.618 33.0815 364.372 33.3455C364.064 33.715 364.13 34.2409 364.567 34.5023C365.003 34.7638 365.623 34.7088 365.931 34.3393C366.3 33.917 366.545 33.4951 366.79 32.968C367.034 32.4409 367.092 31.9146 367.089 31.3884C367.085 30.8623 366.957 30.3366 366.767 29.8111C366.577 29.3383 366.263 28.866 365.888 28.4465C365.574 28.0793 364.953 28.0291 364.521 28.2938C364.088 28.5585 364.03 29.0849 364.343 29.452Z" fill="white"/>
<path d="M367.746 27.9132C368.498 28.9101 368.941 30.1186 368.951 31.3814C368.96 32.6441 368.534 33.8559 367.797 34.8584C367.489 35.2279 367.679 35.7533 368.116 36.0148C368.614 36.2759 369.172 36.116 369.479 35.7465C370.401 34.4802 370.949 33.0049 370.937 31.3738C370.925 29.7954 370.355 28.2717 369.415 27.0124C369.102 26.6453 368.48 26.4898 368.048 26.7545C367.615 27.0193 367.432 27.4935 367.746 27.9132Z" fill="white"/>
<path d="M371.334 26.3212C372.4 27.7904 372.972 29.5245 372.985 31.3661C372.999 33.2076 372.391 34.9462 371.409 36.4232C371.163 36.8451 371.291 37.3181 371.79 37.5793C372.288 37.7879 372.846 37.6805 373.153 37.2585C374.381 35.5175 375.049 33.5155 375.034 31.3583C375.018 29.2011 374.32 27.2043 373.066 25.4727C372.815 25.0528 372.193 24.9499 371.698 25.1622C371.204 25.4272 371.083 25.9012 371.334 26.3212Z" fill="white"/>
<path d="M374.923 24.7291C376.241 26.6709 377.064 28.9303 377.082 31.3505C377.1 33.7708 376.372 36.0361 375.02 37.988C374.775 38.4099 374.903 38.8829 375.401 39.1441C375.899 39.3527 376.457 39.2453 376.764 38.8233C378.238 36.6078 379.088 34.079 379.068 31.343C379.048 28.607 378.16 26.0848 376.655 23.8806C376.403 23.4607 375.782 23.3578 375.287 23.5701C374.792 23.7825 374.671 24.3091 374.923 24.7291Z" fill="white"/>
</g>
<defs>
<filter id="filter0_f_2673_69220" x="-178.859" y="-193.814" width="624.385" height="558.404" filterUnits="userSpaceOnUse" color-interpolation-filters="sRGB">
<feFlood flood-opacity="0" result="BackgroundImageFix"/>
<feBlend mode="normal" in="SourceGraphic" in2="BackgroundImageFix" result="shape"/>
<feGaussianBlur stdDeviation="40.5" result="effect1_foregroundBlur_2673_69220"/>
</filter>
<filter id="filter1_f_2673_69220" x="207.988" y="-53.3145" width="353.443" height="312.596" filterUnits="userSpaceOnUse" color-interpolation-filters="sRGB">
<feFlood flood-opacity="0" result="BackgroundImageFix"/>
<feBlend mode="normal" in="SourceGraphic" in2="BackgroundImageFix" result="shape"/>
<feGaussianBlur stdDeviation="22" result="effect1_foregroundBlur_2673_69220"/>
</filter>
<clipPath id="clip0_2673_69220">
<rect width="400" height="207" rx="10" fill="white"/>
</clipPath>
</defs>
</svg>
